<mxfile host="app.diagrams.net" modified="2023-08-21T09:09:27.213Z" agent="Mozilla/5.0 (Windows NT 10.0; Win64; x64) AppleWebKit/537.36 (KHTML, like Gecko) Chrome/114.0.0.0 Safari/537.36 OPR/100.0.0.0" etag="yk99ia1YQCJo2Umpf_MN" version="21.6.8" type="device">
  <diagram name="Page-1" id="55a83fd1-7818-8e21-69c5-c3457e3827bb">
    <mxGraphModel dx="1393" dy="804" grid="1" gridSize="10" guides="1" tooltips="1" connect="1" arrows="1" fold="1" page="1" pageScale="1" pageWidth="1100" pageHeight="850" background="none" math="0" shadow="0">
      <root>
        <mxCell id="0" />
        <mxCell id="1" parent="0" />
        <mxCell id="TpZOBmBz-xLbmmKvpwFl-14" value="" style="rounded=1;whiteSpace=wrap;html=1;" parent="1" vertex="1">
          <mxGeometry x="120" y="130" width="380" height="530" as="geometry" />
        </mxCell>
        <mxCell id="TpZOBmBz-xLbmmKvpwFl-2" value="" style="image;html=1;image=img/lib/clip_art/computers/Monitor_Tower_128x128.png" parent="1" vertex="1">
          <mxGeometry x="810" y="345" width="80" height="80" as="geometry" />
        </mxCell>
        <mxCell id="TpZOBmBz-xLbmmKvpwFl-3" value="" style="image;html=1;image=img/lib/clip_art/computers/Server_128x128.png" parent="1" vertex="1">
          <mxGeometry x="460" y="340" width="80" height="80" as="geometry" />
        </mxCell>
        <mxCell id="TpZOBmBz-xLbmmKvpwFl-4" value="" style="image;html=1;image=img/lib/clip_art/computers/Server_128x128.png" parent="1" vertex="1">
          <mxGeometry x="190" y="160" width="80" height="80" as="geometry" />
        </mxCell>
        <mxCell id="X2Lgga56qFuYxKWNfzv5-6" style="rounded=0;orthogonalLoop=1;jettySize=auto;html=1;exitX=0;exitY=0.5;exitDx=0;exitDy=0;entryX=1;entryY=0.25;entryDx=0;entryDy=0;endArrow=none;endFill=0;dashed=1;" edge="1" parent="1" source="TpZOBmBz-xLbmmKvpwFl-5" target="TpZOBmBz-xLbmmKvpwFl-3">
          <mxGeometry relative="1" as="geometry" />
        </mxCell>
        <mxCell id="TpZOBmBz-xLbmmKvpwFl-5" value="" style="image;html=1;image=img/lib/clip_art/computers/Server_128x128.png" parent="1" vertex="1">
          <mxGeometry x="800" y="150" width="80" height="80" as="geometry" />
        </mxCell>
        <mxCell id="TpZOBmBz-xLbmmKvpwFl-6" value="" style="image;html=1;image=img/lib/clip_art/computers/Monitor_Tower_128x128.png" parent="1" vertex="1">
          <mxGeometry x="200" y="520" width="80" height="80" as="geometry" />
        </mxCell>
        <mxCell id="TpZOBmBz-xLbmmKvpwFl-9" value="" style="endArrow=none;dashed=1;html=1;rounded=0;" parent="1" source="TpZOBmBz-xLbmmKvpwFl-3" target="TpZOBmBz-xLbmmKvpwFl-2" edge="1">
          <mxGeometry width="50" height="50" relative="1" as="geometry">
            <mxPoint x="520" y="340" as="sourcePoint" />
            <mxPoint x="570" y="290" as="targetPoint" />
          </mxGeometry>
        </mxCell>
        <mxCell id="TpZOBmBz-xLbmmKvpwFl-12" value="" style="endArrow=none;html=1;rounded=0;entryX=0;entryY=0.25;entryDx=0;entryDy=0;" parent="1" source="TpZOBmBz-xLbmmKvpwFl-4" target="TpZOBmBz-xLbmmKvpwFl-3" edge="1">
          <mxGeometry width="50" height="50" relative="1" as="geometry">
            <mxPoint x="520" y="340" as="sourcePoint" />
            <mxPoint x="570" y="290" as="targetPoint" />
          </mxGeometry>
        </mxCell>
        <mxCell id="TpZOBmBz-xLbmmKvpwFl-13" value="" style="endArrow=none;html=1;rounded=0;entryX=0;entryY=0.75;entryDx=0;entryDy=0;" parent="1" source="TpZOBmBz-xLbmmKvpwFl-6" target="TpZOBmBz-xLbmmKvpwFl-3" edge="1">
          <mxGeometry width="50" height="50" relative="1" as="geometry">
            <mxPoint x="520" y="340" as="sourcePoint" />
            <mxPoint x="570" y="290" as="targetPoint" />
          </mxGeometry>
        </mxCell>
        <UserObject label="Локальная сеть" placeholders="1" name="Variable" id="TpZOBmBz-xLbmmKvpwFl-15">
          <mxCell style="text;html=1;strokeColor=none;fillColor=none;align=center;verticalAlign=middle;whiteSpace=wrap;overflow=hidden;fontSize=21;" parent="1" vertex="1">
            <mxGeometry x="230" y="90" width="160" height="30" as="geometry" />
          </mxCell>
        </UserObject>
        <UserObject label="Удалённые сотрудники" placeholders="1" name="Variable" id="TpZOBmBz-xLbmmKvpwFl-16">
          <mxCell style="text;html=1;strokeColor=none;fillColor=none;align=center;verticalAlign=middle;whiteSpace=wrap;overflow=hidden;fontSize=16;fontStyle=1" parent="1" vertex="1">
            <mxGeometry x="800" y="425" width="100" height="45" as="geometry" />
          </mxCell>
        </UserObject>
        <UserObject label="&lt;b&gt;VPN Сервер&lt;/b&gt;" placeholders="1" name="Variable" id="TpZOBmBz-xLbmmKvpwFl-17">
          <mxCell style="text;html=1;strokeColor=none;fillColor=none;align=center;verticalAlign=middle;whiteSpace=wrap;overflow=hidden;fontSize=16;" parent="1" vertex="1">
            <mxGeometry x="520" y="405" width="80" height="40" as="geometry" />
          </mxCell>
        </UserObject>
        <UserObject label="158.160.16.148" placeholders="1" name="Variable" id="TpZOBmBz-xLbmmKvpwFl-18">
          <mxCell style="text;html=1;strokeColor=none;fillColor=none;align=center;verticalAlign=middle;whiteSpace=wrap;overflow=hidden;fontSize=16;" parent="1" vertex="1">
            <mxGeometry x="500" y="445" width="120" height="20" as="geometry" />
          </mxCell>
        </UserObject>
        <UserObject label="&lt;b&gt;Сервер резервного копирования&lt;br&gt;&lt;/b&gt;" placeholders="1" name="Variable" id="TpZOBmBz-xLbmmKvpwFl-19">
          <mxCell style="text;html=1;strokeColor=none;fillColor=none;align=center;verticalAlign=middle;whiteSpace=wrap;overflow=hidden;fontSize=16;" parent="1" vertex="1">
            <mxGeometry x="760" y="110" width="170" height="50" as="geometry" />
          </mxCell>
        </UserObject>
        <UserObject label="&lt;b&gt;WEB Сервер&lt;/b&gt;" placeholders="1" name="Variable" id="TpZOBmBz-xLbmmKvpwFl-20">
          <mxCell style="text;html=1;strokeColor=none;fillColor=none;align=center;verticalAlign=middle;whiteSpace=wrap;overflow=hidden;fontSize=16;" parent="1" vertex="1">
            <mxGeometry x="165" y="240" width="130" height="25" as="geometry" />
          </mxCell>
        </UserObject>
        <UserObject label="Рабочая станция сотрудника" placeholders="1" name="Variable" id="TpZOBmBz-xLbmmKvpwFl-21">
          <mxCell style="text;html=1;strokeColor=none;fillColor=none;align=center;verticalAlign=middle;whiteSpace=wrap;overflow=hidden;fontSize=16;fontStyle=1" parent="1" vertex="1">
            <mxGeometry x="190" y="590" width="100" height="60" as="geometry" />
          </mxCell>
        </UserObject>
        <UserObject label="51.250.11.149" placeholders="1" name="Variable" id="X2Lgga56qFuYxKWNfzv5-7">
          <mxCell style="text;html=1;strokeColor=none;fillColor=none;align=center;verticalAlign=middle;whiteSpace=wrap;overflow=hidden;fontSize=16;" vertex="1" parent="1">
            <mxGeometry x="780" y="220" width="120" height="20" as="geometry" />
          </mxCell>
        </UserObject>
      </root>
    </mxGraphModel>
  </diagram>
</mxfile>
